# xmcd
#
# Track frame offsets:
#	150
#	11672
#	27720
#	40435
#	56875
#	73312
#	89450
#	107357
#	117692
#	135215
#	147675
#	159530
#	175425
#	197547
#	209035
#	221737
#	236432
#
# Disc length: 3642 seconds
#
# Revision: 1
# Processed by: cddbd v1.5.2PL0 Copyright (c) Steve Scherf et al.
# Submitted via: audiograbber 1.83.01
#
DISCID=0f0e3811
DTITLE=Ronstadt, Linda - thmpl002
DYEAR=1999
DGENRE=Pop
TTITLE0=Ronstadt, Linda - Silver Threads and Golden Needles
TTITLE1=Ronstadt, Linda - Don't Know Much ( Duet )
TTITLE2=Ronstadt, Linda - I Can't Help It If I'm Still In Love With You
TTITLE3=Ronstadt, Linda - Cry Like A Rainstorm
TTITLE4=Ronstadt, Linda - Crazy Arms
TTITLE5=Ronstadt, Linda - Desperado
TTITLE6=Ronstadt, Linda - A River For Him
TTITLE7=Ronstadt, Linda - When Will I Be Loved
TTITLE8=Ronstadt, Linda - High Sierra
TTITLE9=Ronstadt, Linda - Heatwave
TTITLE10=Ronstadt, Linda - That'll Be The Day
TTITLE11=Ronstadt, Linda - It Doesn't Matter Anymore
TTITLE12=Ronstadt, Linda - Long Long Time
TTITLE13=Ronstadt, Linda - It's So Easy
TTITLE14=Ronstadt, Linda - Love Is A Rose
TTITLE15=Ronstadt, Linda - You're No Good
TTITLE16=Ronstadt, Linda - Poor Poor Pitiful Me
EXTD=
EXTT0=
EXTT1=
EXTT2=
EXTT3=
EXTT4=
EXTT5=
EXTT6=
EXTT7=
EXTT8=
EXTT9=
EXTT10=
EXTT11=
EXTT12=
EXTT13=
EXTT14=
EXTT15=
EXTT16=
PLAYORDER=
